<svg width="3840" height="2160" viewBox="0 0 3840 2160" fill="none" xmlns="http://www.w3.org/2000/svg">
<g clip-path="url(#clip0_1_4)">
<rect width="3840" height="2160" fill="white"/>
<path d="M-51.7185 -184.992C-37.3308 -231.706 6.39563 -263.13 55.259 -261.872L3107.07 -183.272C3189.63 -181.145 3239.93 -91.5383 3198.74 -19.9485L2336.38 1478.86C2294.36 1551.89 2223.58 1603.88 2141.33 1622.13L-627.059 2236.41C-708.669 2254.52 -779.448 2177.8 -754.841 2097.91L-51.7185 -184.992Z" fill="#121212"/>
<path d="M-51.7185 -184.992C-37.3308 -231.706 6.39563 -263.13 55.259 -261.872L3107.07 -183.272C3189.63 -181.145 3239.93 -91.5383 3198.74 -19.9485L2336.38 1478.86C2294.36 1551.89 2223.58 1603.88 2141.33 1622.13L-627.059 2236.41C-708.669 2254.52 -779.448 2177.8 -754.841 2097.91L-51.7185 -184.992Z" fill="url(#paint0_linear_1_4)"/>
</g>
<defs>
<linearGradient id="paint0_linear_1_4" x1="1240" y1="-264" x2="1240" y2="2277" gradientUnits="userSpaceOnUse">
<stop stop-color="#36B5FF"/>
<stop offset="1" stop-color="#0085D2"/>
</linearGradient>
<clipPath id="clip0_1_4">
<rect width="3840" height="2160" fill="white"/>
</clipPath>
</defs>
</svg>
